<svg
    width="40"
    height="40"
    viewBox="0 0 40 40"
    fill="none"
    xmlns="http://www.w3.org/2000/svg">
    <path
    d="M9.99998 31.6667C5.85784 31.6667 3.33331 28.3088 3.33331 24.1667C3.33331 20.0246 6.69118 16.6667 10.8333 16.6667H11.6666V15C11.6666 10.3976 15.3976 6.66669 20 6.66669C24.6024 6.66669 28.3333 10.3976 28.3333 15V16.6667H29.1666C33.3088 16.6667 36.6666 20.0246 36.6666 24.1667C36.6666 28.3088 34.1421 31.6667 30 31.6667"
    stroke="#FFF"
    strokeWidth="2.5"
    stroke-linecap="round"
    stroke-linejoin="round"
    />
    <path
    d="M14.9999 32.5001V25.8334C14.9999 25.3732 15.373 25.0001 15.8333 25.0001H24.1666C24.6268 25.0001 24.9999 25.3732 24.9999 25.8334V32.5001C24.9999 32.9603 24.6268 33.3334 24.1666 33.3334H15.8333C15.373 33.3334 14.9999 32.9603 14.9999 32.5001Z"
    stroke="#FFF"
    strokeWidth="2.5"
    stroke-linecap="round"
    stroke-linejoin="round"
    />
    <path
    d="M16.6666 25.0001V23.3334C16.6666 21.4924 18.159 20.0001 20 20.0001V20.0001C21.8409 20.0001 23.3333 21.4924 23.3333 23.3334V25.0001"
    stroke="#FFF"
    strokeWidth="2.5"
    stroke-linecap="round"
    stroke-linejoin="round"
    />
</svg>